<svg xmlns="http://www.w3.org/2000/svg" width="942" height="906" viewBox="0 0 942 906" version="1.1"><path d="M 497.721 39.756 C 495.590 42.111, 495.524 44.360, 497.538 46.031 C 498.393 46.741, 503.831 47.691, 509.788 48.171 C 515.679 48.646, 527.155 49.968, 535.288 51.108 C 551.509 53.382, 553.379 53.060, 552.801 48.086 C 552.390 44.554, 549.053 43.604, 528.416 41.144 C 498.418 37.567, 499.651 37.623, 497.721 39.756 M 593.605 56.299 C 592.444 57.148, 591.945 58.578, 592.164 60.426 C 592.483 63.112, 593.247 63.512, 607.500 68.458 C 615.750 71.321, 626.525 75.314, 631.444 77.332 C 641.117 81.299, 642.961 81.639, 644.800 79.800 C 647.308 77.292, 646.172 74.128, 641.999 72 C 635.572 68.720, 598.111 55, 595.586 55 C 595.474 55, 594.583 55.585, 593.605 56.299 M 432.337 75.953 C 430.776 78.127, 424.202 87.976, 417.727 97.839 L 405.954 115.771 395.227 111.995 C 378.301 106.037, 366.070 103.850, 346.335 103.252 C 335.691 102.929, 325.433 103.191, 319.335 103.941 C 257.276 111.575, 204.634 153.284, 182.597 212.283 C 174.953 232.746, 172.002 251.665, 172.001 280.215 C 172 294.906, 171.870 295.999, 170 297 C 168.897 297.591, 168 299.094, 168 300.353 C 168 304.140, 238.400 467.190, 240.692 468.712 C 241.801 469.448, 243.395 469.786, 244.236 469.463 C 245.077 469.140, 251.947 459.447, 259.504 447.922 C 267.060 436.397, 273.624 426.732, 274.090 426.445 C 274.556 426.157, 278.888 427.327, 283.718 429.046 C 339.275 448.814, 401.174 437.833, 447.500 399.989 C 472.380 379.665, 492.271 349.248, 501.494 317.425 C 506.150 301.361, 507.137 293.661, 507.702 269.010 C 508.195 247.503, 508.399 245.409, 510.120 244.203 C 511.154 243.479, 512 241.878, 512 240.646 C 512 238.445, 442.743 75.695, 440.766 73.250 C 438.749 70.755, 435.264 71.873, 432.337 75.953 M 423.242 105.857 C 414.867 118.661, 409.462 126, 408.407 126 C 407.495 126, 402.867 124.450, 398.124 122.556 C 379.428 115.089, 361.238 111.757, 339.500 111.816 C 259.956 112.032, 193.774 169.873, 182.528 249.006 C 181.653 255.166, 181.029 267.037, 181.018 277.750 L 181 296 219.380 296 L 257.759 296 258.257 277.250 C 258.845 255.071, 260.453 247.534, 267.699 233 C 271.677 225.022, 273.963 221.961, 281.968 213.898 C 295.083 200.686, 307.896 193.645, 324.667 190.437 C 337.118 188.054, 357.911 189.051, 361.750 192.215 C 364.348 194.356, 362.663 198.043, 350.877 216.015 C 344.209 226.182, 338.565 234.986, 338.335 235.579 C 338.037 236.349, 361.264 236.530, 419.208 236.210 C 463.919 235.963, 500.601 235.676, 500.725 235.572 C 500.989 235.351, 438.493 89.162, 437.256 87.107 C 436.657 86.113, 432.645 91.481, 423.242 105.857 M 681.632 96.115 C 680.784 97.326, 680.441 99.018, 680.831 100.071 C 681.205 101.083, 686.459 104.988, 692.506 108.749 C 698.553 112.510, 708 118.828, 713.500 122.790 C 724.306 130.574, 727.364 131.490, 729.186 127.490 C 730.166 125.340, 730.004 124.633, 728.052 122.556 C 723.224 117.416, 687.565 94, 684.567 94 C 683.768 94, 682.447 94.952, 681.632 96.115 M 759.200 154.200 C 756.719 156.681, 758.052 159.609, 764.585 166.029 C 768.207 169.588, 776.140 178.012, 782.214 184.750 C 790.345 193.769, 793.874 197, 795.594 197 C 797.715 197, 800 194.521, 800 192.218 C 800 190.823, 787.776 176.797, 775.626 164.250 C 764.768 153.039, 762.034 151.366, 759.200 154.200 M 328 198.690 C 306.075 202.351, 285.135 217.923, 274.917 238.165 C 269.265 249.361, 267.816 256.760, 267.264 277.250 L 266.759 296 309.298 296 C 332.694 296, 352.548 296.273, 353.418 296.607 C 356.942 297.959, 354.896 302.551, 341.961 322.324 C 334.790 333.286, 329.184 342.518, 329.505 342.839 C 330.761 344.094, 350.750 343.225, 357 341.643 C 360.575 340.738, 367.775 337.907, 373 335.352 C 380.980 331.449, 383.860 329.329, 391 322.103 C 400.782 312.203, 404.985 305.578, 409.299 293.261 C 412.238 284.871, 412.387 283.664, 412.801 264.761 L 413.233 245.021 369.367 244.761 L 325.500 244.500 325.197 241.890 C 324.971 239.942, 328.084 234.431, 337.468 220.166 C 344.384 209.654, 350.306 200.366, 350.628 199.526 C 351.132 198.213, 349.766 198.019, 340.857 198.136 C 335.161 198.211, 329.375 198.460, 328 198.690 M 822.250 228.099 C 818.427 229.520, 819.508 233.410, 827.323 246.363 C 831.351 253.038, 836.864 262.901, 839.573 268.281 C 844.665 278.389, 847.258 280.690, 850.513 277.989 C 853.576 275.447, 852.654 272.822, 841.744 253 C 835.771 242.150, 826.914 228.181, 825.718 227.726 C 825.048 227.471, 823.487 227.639, 822.250 228.099 M 421.738 264.750 C 421.333 280.868, 420.854 285.823, 419.133 291.695 C 410.321 321.754, 388.910 342.571, 359.050 350.110 C 351.875 351.922, 348.555 352.177, 337.050 351.804 C 322.422 351.330, 317.724 350.043, 317.197 346.366 C 317.002 345.004, 321.366 337.448, 329.447 325.160 C 336.351 314.660, 342 305.828, 342 305.534 C 342 305.240, 305.277 305, 260.393 305 C 195.507 305, 178.889 305.256, 179.287 306.250 C 183.125 315.831, 242.532 453.746, 243.097 454.389 C 243.527 454.878, 249.565 446.663, 256.516 436.134 C 263.466 425.604, 269.977 416.548, 270.984 416.009 C 272.336 415.285, 274.247 415.661, 278.282 417.446 C 299.946 427.027, 330.898 431.753, 354.795 429.129 C 392.686 424.969, 423.800 410.612, 450.290 385.066 C 467.187 368.772, 479.991 349.880, 487.943 329.512 C 496.372 307.924, 498.986 292.604, 498.994 264.750 L 499 245 460.617 245 L 422.234 245 421.738 264.750 M 101.792 269.750 C 99.088 272.867, 87.336 300.028, 81.435 316.798 C 80.048 320.738, 79.844 322.532, 80.636 323.798 C 81.963 325.917, 86.341 326.544, 87.642 324.801 C 88.176 324.085, 91.014 317.200, 93.948 309.500 C 96.882 301.800, 101.716 290.326, 104.689 284.002 C 109.172 274.468, 109.920 272.120, 109.069 270.252 C 107.822 267.516, 103.961 267.250, 101.792 269.750 M 674.734 272.027 C 664.588 274.582, 655.478 282.433, 652.061 291.567 C 650.927 294.596, 650 297.733, 650 298.538 C 650 299.789, 645.591 300, 619.455 300 L 588.909 300 586.455 302.455 C 584.497 304.412, 584 305.931, 584 309.955 L 584 315 568.923 315 L 553.846 315 550.923 317.923 L 548 320.846 548 472.358 C 548 566.412, 548.363 624.824, 548.957 626.387 C 551.203 632.295, 544.192 632, 682.403 632 C 778.352 632, 809.539 631.711, 811.528 630.805 C 817.316 628.168, 817 637.244, 817 473.484 C 817 364.523, 816.691 322.264, 815.883 320.684 C 813.250 315.536, 811.520 315.046, 795.874 315.022 L 781.248 315 780.778 309.334 C 779.982 299.739, 780.969 300, 745.469 300 L 715.159 300 714.456 296.750 C 712.504 287.722, 704.225 277.757, 695.452 273.876 C 690.288 271.591, 680.080 270.680, 674.734 272.027 M 674.748 281.427 C 665.971 284.559, 660.687 291.016, 658.624 301.129 C 657.712 305.599, 656.813 307.562, 655.428 308.104 C 654.367 308.520, 639.888 308.891, 623.250 308.930 L 593 309 593 326.500 L 593 344 682.500 344 L 772 344 772 326.540 L 772 309.081 740.549 308.790 C 719.661 308.598, 708.734 308.136, 708.015 307.416 C 707.419 306.820, 706.573 304.064, 706.135 301.293 C 703.702 285.900, 688.743 276.432, 674.748 281.427 M 863.003 316.994 C 862.162 318.565, 862.787 321.699, 865.944 331.744 C 868.149 338.760, 871.302 349.867, 872.952 356.426 C 874.602 362.985, 876.357 368.757, 876.854 369.254 C 877.350 369.750, 879.049 370.009, 880.628 369.828 C 883.048 369.552, 883.549 368.993, 883.811 366.281 C 884.306 361.161, 872.731 319.791, 869.824 316.287 C 868.196 314.327, 864.209 314.740, 863.003 316.994 M 557 473.500 L 557 623 682.500 623 L 808 623 808 473.500 L 808 324 794.584 324 L 781.167 324 780.834 335.975 C 780.530 346.865, 780.294 348.156, 778.222 350.225 L 775.944 352.500 682.386 352.500 L 588.827 352.500 586.413 349.694 C 584.166 347.082, 584 346.100, 584 335.444 L 584 324 570.500 324 L 557 324 557 473.500 M 67.730 370.250 C 65.744 371.752, 62.879 387.175, 60.365 409.904 C 58.528 426.507, 58.817 430.457, 61.924 431.270 C 66.150 432.375, 67.659 429.719, 68.402 419.869 C 69.246 408.690, 71.459 392.418, 73.656 381.234 C 75.197 373.392, 75.188 372.865, 73.485 370.984 C 71.404 368.684, 70.032 368.509, 67.730 370.250 M 596.015 381.481 C 595.302 382.341, 595.045 384.043, 595.409 385.493 L 596.041 388.011 682.162 387.756 C 762.933 387.516, 768.351 387.391, 769.386 385.750 C 770.191 384.474, 770.191 383.526, 769.386 382.250 C 768.351 380.609, 762.962 380.484, 682.768 380.244 C 607.953 380.021, 597.099 380.176, 596.015 381.481 M 885.893 410.376 C 883.870 411.392, 883.520 412.269, 883.628 416.039 C 884.318 440.095, 885.211 461.912, 885.579 463.735 C 886.121 466.415, 890.345 467.789, 892.513 465.989 C 893.715 464.992, 893.995 461.761, 893.974 449.128 C 893.950 434.442, 892.693 415.759, 891.470 411.905 C 890.710 409.509, 888.709 408.961, 885.893 410.376 M 757.230 413.074 C 751.744 415.842, 745.771 422.775, 741.785 431 C 739.271 436.188, 738.551 439.114, 738.221 445.500 C 737.672 456.097, 740.165 463.054, 746.655 469.036 L 751.237 473.260 749.011 512.248 C 746.251 560.604, 744.953 556.500, 763 556.500 C 781.105 556.500, 779.817 560.567, 777.024 512.202 L 774.775 473.248 779.351 469.031 C 785.859 463.032, 788.338 456.083, 787.746 445.500 C 787.224 436.173, 784.501 429.272, 778.230 421.381 C 770.892 412.149, 764.261 409.527, 757.230 413.074 M 672.571 416.571 C 671.254 417.889, 671 421.187, 671 436.957 C 671 455.571, 671.030 455.829, 673.777 461.136 C 675.813 465.070, 677.973 467.433, 681.880 470 L 687.206 473.500 686.643 479.500 C 686.334 482.800, 685.296 500.449, 684.337 518.720 L 682.594 551.939 684.971 554.470 C 687.229 556.872, 687.891 557, 698.093 557 C 710.486 557, 711.577 556.719, 713.483 553.033 C 714.703 550.673, 714.634 545.912, 712.962 517.405 C 710.617 477.387, 710.540 472, 712.320 472 C 714.789 472, 721.816 465.012, 724.107 460.278 C 726.273 455.804, 726.377 454.585, 726.132 436.557 C 725.869 417.226, 725.436 415, 721.934 415 C 717.916 415, 717.285 418.038, 717.776 435.042 C 718.165 448.501, 717.966 451.801, 716.542 455.530 C 714.793 460.108, 710.905 463.664, 706.299 464.895 C 704.859 465.281, 703.149 466.474, 702.500 467.548 C 701.338 469.470, 701.454 472.241, 705.456 538.250 L 706.107 549 699.113 549 C 695.266 549, 691.946 548.663, 691.735 548.250 C 691.524 547.837, 692.389 530.175, 693.657 509 C 694.925 487.825, 695.742 469.504, 695.472 468.287 C 695.132 466.756, 693.770 465.712, 691.051 464.897 C 688.889 464.249, 685.631 462.184, 683.810 460.307 L 680.500 456.894 680.188 437.225 C 680 425.299, 679.459 417.053, 678.816 416.278 C 677.369 414.535, 674.472 414.671, 672.571 416.571 M 695.872 416.653 C 694.865 417.866, 694.408 422.736, 694.152 434.984 C 693.849 449.525, 694.019 451.876, 695.474 453.331 C 697.707 455.564, 700.693 455.442, 701.965 453.066 C 703.480 450.234, 703.335 417.735, 701.800 416.200 C 700.109 414.509, 697.486 414.710, 695.872 416.653 M 757.478 424.127 C 754.990 426.421, 751.617 431.065, 749.887 434.577 C 743.974 446.588, 746.471 459.878, 755.519 464.560 C 758.382 466.042, 759.586 467.350, 759.808 469.219 C 759.977 470.648, 759.189 487.859, 758.058 507.467 C 756.926 527.074, 756 544.440, 756 546.058 L 756 549 763 549 L 770 549 769.994 545.750 C 769.991 543.962, 769.332 531.025, 768.531 517 C 767.729 502.975, 766.768 486.056, 766.395 479.403 L 765.717 467.306 770.096 464.890 C 779.636 459.628, 782.172 446.886, 776.125 434.602 C 773.214 428.690, 765.404 420, 763 420 C 762.425 420, 759.940 421.857, 757.478 424.127 M 597.751 444.689 C 595.500 445.277, 594.404 449.577, 596.011 451.513 C 597.041 452.754, 601.264 453, 621.587 453 C 644.906 453, 645.975 452.916, 647 451 C 648.237 448.689, 646.999 445.597, 644.446 444.618 C 642.626 443.919, 600.449 443.984, 597.751 444.689 M 60.532 477.353 C 57.715 479.412, 58.332 489.854, 63.180 522.201 C 64.693 532.291, 65.711 536.334, 67.045 537.541 C 69.184 539.476, 72.634 538.727, 73.452 536.150 C 73.757 535.189, 72.876 526.775, 71.493 517.451 C 70.110 508.128, 68.686 495.815, 68.328 490.088 C 67.816 481.908, 67.282 479.282, 65.838 477.838 C 63.642 475.642, 62.957 475.579, 60.532 477.353 M 884.305 507.079 C 882.022 507.928, 881.947 508.176, 879.942 521.500 C 879.363 525.350, 877.564 534.759, 875.944 542.408 C 872.230 559.951, 872.198 561.761, 875.585 562.611 C 879.339 563.553, 880.938 561.384, 883.147 552.351 C 886.650 538.028, 890.933 510.743, 889.963 508.931 C 888.755 506.673, 886.969 506.089, 884.305 507.079 M 596.750 510.070 C 594.741 511.252, 594.432 515.032, 596.200 516.800 C 597.066 517.666, 604.010 518, 621.143 518 C 644.484 518, 644.913 517.963, 646.430 515.796 C 647.746 513.918, 647.773 513.291, 646.616 511.546 C 645.319 509.593, 644.193 509.490, 621.879 509.270 C 607.226 509.127, 597.847 509.425, 596.750 510.070 M 249.500 525.204 C 246.294 527.037, 198.734 561.103, 196.166 563.407 C 193.841 565.492, 193.834 565.574, 194.236 585.500 C 194.690 607.973, 195.478 611.628, 201.902 621.023 C 203.961 624.036, 207.751 628.074, 210.323 629.998 L 215 633.496 215.022 718.998 C 215.043 800.219, 215.137 804.705, 216.905 808.599 C 217.929 810.853, 220.282 813.778, 222.133 815.099 L 225.500 817.500 352.268 817.761 C 476.907 818.018, 479.100 817.989, 482.917 816.042 C 485.052 814.953, 487.856 812.361, 489.149 810.281 L 491.500 806.500 491.777 720.191 L 492.054 633.881 498.533 627.820 C 510.064 617.034, 512.979 607.666, 512.992 581.361 C 512.999 568.366, 512.752 565.938, 511.250 564.217 C 510.288 563.114, 497.440 553.614, 482.700 543.106 L 455.900 524 353.700 524.030 C 278.916 524.053, 250.963 524.367, 249.500 525.204 M 233.707 547.235 C 218.421 558.209, 214.323 561.600, 215.707 562.132 C 218.092 563.047, 486.894 563.124, 490.282 562.211 C 492.704 561.558, 491.294 560.335, 473.040 547.250 L 453.161 533 353.331 533.013 L 253.500 533.027 233.707 547.235 M 203.165 587.763 C 203.497 604.395, 203.531 604.615, 206.760 611.169 C 212.702 623.230, 223.519 630.237, 236.419 630.381 C 250.696 630.540, 261.008 624.329, 267.452 611.688 L 271.403 603.936 271.452 587.718 L 271.500 571.500 237.165 571.237 L 202.831 570.974 203.165 587.763 M 280.346 572.541 C 279.140 575.685, 280.701 603.389, 282.331 607.761 C 288.179 623.450, 304.523 633.038, 320.412 630.101 C 331.854 627.986, 340.769 620.988, 345.865 610.120 C 348.325 604.873, 348.522 603.388, 348.834 587.750 L 349.169 571 315.053 571 C 285.250 571, 280.862 571.195, 280.346 572.541 M 358 586.962 C 358 606.124, 359.340 610.928, 367.029 619.341 C 380.667 634.263, 403.333 634.263, 416.971 619.341 C 424.660 610.928, 426 606.124, 426 586.962 L 426 571 392 571 L 358 571 358 586.962 M 435.149 587.760 C 435.496 604.371, 435.534 604.615, 438.760 611.166 C 445.789 625.439, 460.719 633.058, 475.631 629.980 C 483.367 628.383, 488.248 625.805, 493.526 620.526 C 501.927 612.125, 504.290 603.730, 503.806 584 L 503.500 571.500 469.149 571.237 L 434.798 570.974 435.149 587.760 M 596.200 575.200 C 594.363 577.037, 594.772 580.808, 596.934 581.965 C 598.224 582.655, 626.876 583, 682.863 583 C 757.888 583, 767.025 582.832, 768.429 581.429 C 770.271 579.586, 770.371 578.562, 768.965 575.934 C 767.954 574.045, 765.940 574, 682.665 574 C 617.681 574, 597.115 574.285, 596.200 575.200 M 80.243 583.157 C 79.559 583.841, 79.005 585.322, 79.011 586.450 C 79.029 589.674, 86.519 609.315, 96.106 631.273 C 99.531 639.118, 101.742 641.080, 105.520 639.631 C 108.572 638.460, 108.129 635.754, 103.050 624.516 C 100.203 618.218, 95.297 606.188, 92.148 597.782 C 87.031 584.125, 86.160 582.469, 83.954 582.207 C 82.597 582.046, 80.927 582.473, 80.243 583.157 M 274.270 618.306 C 272.608 621.955, 266.343 628.672, 261.557 631.937 C 252.455 638.147, 240.028 640.620, 228.250 638.566 L 224 637.824 224 720.777 C 224 803.184, 224.014 803.748, 226.073 806.365 L 228.145 809 352.962 809 C 474.360 809, 477.843 808.948, 480.139 807.089 L 482.500 805.177 482.767 721.552 L 483.034 637.927 477.767 638.544 C 474.870 638.884, 471.975 639.321, 471.334 639.517 C 470.692 639.713, 467.130 639.443, 463.417 638.917 C 451.449 637.222, 440.086 630.001, 433.226 619.730 L 430.708 615.960 427.395 620.879 C 416.155 637.571, 392.814 644.013, 374.296 635.535 C 366.901 632.150, 362.303 628.402, 357.427 621.787 L 353.217 616.074 350.736 619.787 C 339.431 636.710, 318.431 643.576, 299.239 636.624 C 291.471 633.811, 283.928 627.545, 277.474 618.545 L 275.449 615.720 274.270 618.306 M 345.500 647.573 C 338.370 651.281, 335 658.030, 335 668.601 L 335 673.839 329.750 675.558 C 312.743 681.125, 296.217 694.242, 287.123 709.391 C 280.211 720.904, 276 737.635, 276 753.579 L 276 761.895 270.853 762.198 C 264.584 762.566, 263.469 763.971, 264.419 770.306 C 265.423 777.007, 270.511 783.879, 276.962 787.249 L 282.228 790 353.146 790 C 430.750 790, 427.215 790.262, 434.382 783.970 C 438.589 780.276, 441.404 775.292, 442.407 769.764 C 443.457 763.980, 441.932 762.159, 435.743 761.802 L 430.500 761.500 429.869 747.500 C 429.367 736.361, 428.708 731.865, 426.644 725.500 C 419.174 702.464, 400.161 683.126, 377.967 675.989 L 371 673.749 371 666.690 C 371 657.452, 368.441 651.929, 362.566 648.486 C 357.571 645.559, 350.137 645.161, 345.500 647.573 M 350.388 654.959 C 346.306 656.650, 344 660.864, 344 666.635 L 344 672 353 672 L 362 672 362 666.056 C 362 661.304, 361.549 659.606, 359.750 657.593 C 357.186 654.724, 353.476 653.679, 350.388 654.959 M 125.953 681.089 C 125.009 682.851, 125.416 684.061, 128.558 688.839 C 133.767 696.760, 150.922 719.550, 155.967 725.250 C 160.859 730.778, 164.343 731.535, 166.195 727.471 C 167.158 725.358, 167.031 724.549, 165.424 722.552 C 154.389 708.842, 144.942 696.471, 139.466 688.562 C 133.687 680.215, 132.478 679, 129.958 679 C 128.053 679, 126.690 679.711, 125.953 681.089 M 336.373 682.979 C 313.485 688.979, 295.585 705.953, 288.368 728.500 C 286.395 734.666, 285.682 739.424, 285.260 749.257 L 284.712 762.014 353.106 761.757 L 421.500 761.500 421.370 750.467 C 421.124 729.576, 415.139 714.994, 401.059 700.982 C 391.233 691.202, 382.486 686.065, 370.391 682.972 C 360.383 680.412, 346.151 680.415, 336.373 682.979 M 799.373 706.750 C 795.130 712.112, 787.235 721.511, 781.829 727.635 C 776.406 733.779, 772 739.664, 772 740.763 C 772 743.486, 774.502 745.343, 777.237 744.650 C 779.675 744.031, 791.875 730.678, 804.905 714.365 C 812.946 704.298, 814.427 700.827, 811.800 698.200 C 809.223 695.623, 806.929 697.202, 799.373 706.750 M 274.483 771.027 C 273.534 772.563, 276.599 776.785, 280.304 779.044 C 283.392 780.926, 285.876 780.993, 353.500 780.993 C 421.167 780.993, 423.607 780.927, 426.701 779.040 C 429.367 777.415, 433 772.538, 433 770.585 C 433 769.504, 275.152 769.944, 274.483 771.027 M 731.842 775.285 C 723.330 782.114, 712.199 790.230, 702.750 796.497 C 695.197 801.506, 694 802.685, 694 805.115 C 694 808.744, 697.028 810.577, 700.250 808.898 C 708.917 804.383, 741.233 780.334, 742.892 777.165 C 743.377 776.240, 743.386 774.501, 742.914 773.250 C 741.597 769.763, 737.871 770.448, 731.842 775.285 M 641.675 830.077 C 635.721 832.763, 625.821 836.799, 619.675 839.045 C 602.739 845.235, 602 845.624, 602 848.361 C 602 851.771, 604.367 853.377, 608.246 852.601 C 614.765 851.297, 650.320 836.986, 655.543 833.564 C 658.354 831.722, 658.717 828.860, 656.429 826.571 C 654.299 824.442, 654.019 824.508, 641.675 830.077 M 542.500 859.572 C 535.350 860.830, 523.718 862.417, 516.652 863.098 C 504.989 864.222, 503.711 864.539, 502.799 866.541 C 501.360 869.699, 503.348 873, 506.688 873 C 517.389 873, 557.165 866.938, 559.572 864.941 C 562.548 862.471, 560.052 856.492, 556.316 857.142 C 555.867 857.220, 549.650 858.313, 542.500 859.572" stroke="none" fill="#3e6789" fill-rule="evenodd"/></svg>