<svg width="40" height="40" viewBox="0 0 40 40" fill="none" xmlns="http://www.w3.org/2000/svg">
<path d="M32 0C36.4183 0 40 3.58172 40 8V32C40 36.4183 36.4183 40 32 40H8C3.58172 40 0 36.4183 0 32V8C0 3.58172 3.58172 0 8 0H32Z" fill="#5F63F2"/>
<path d="M32 0C36.4183 0 40 3.58172 40 8V32C40 36.4183 36.4183 40 32 40H8C3.58172 40 0 36.4183 0 32V8C0 3.58172 3.58172 0 8 0H32Z" stroke="#E5E7EB"/>
<path d="M27.875 34H12.125V6H27.875V34Z" stroke="#E5E7EB"/>
<g clip-path="url(#clip0_94_2043)">
<path d="M26.75 10.25C26.1875 10.25 22.25 11.375 22.25 16.4375V20.375C22.25 21.616 23.259 22.625 24.5 22.625H25.625V27.125C25.625 27.7473 26.1277 28.25 26.75 28.25C27.3723 28.25 27.875 27.7473 27.875 27.125V22.625V18.6875V11.375C27.875 10.7527 27.3723 10.25 26.75 10.25ZM14.375 10.8125C14.375 10.5242 14.1605 10.2852 13.8723 10.2535C13.584 10.2219 13.3273 10.4117 13.2641 10.6895L12.1988 15.4813C12.1496 15.7027 12.125 15.9277 12.125 16.1527C12.125 17.7664 13.359 19.0918 14.9375 19.2359V27.125C14.9375 27.7473 15.4402 28.25 16.0625 28.25C16.6848 28.25 17.1875 27.7473 17.1875 27.125V19.2359C18.766 19.0918 20 17.7664 20 16.1527C20 15.9277 19.9754 15.7027 19.9262 15.4813L18.8609 10.6895C18.7977 10.4082 18.534 10.2219 18.2492 10.2535C17.9645 10.2852 17.75 10.5242 17.75 10.8125V15.5305C17.75 15.7203 17.5953 15.875 17.4055 15.875C17.2262 15.875 17.0785 15.7379 17.0609 15.5586L16.6215 10.7633C16.5969 10.4715 16.3543 10.25 16.0625 10.25C15.7707 10.25 15.5281 10.4715 15.5035 10.7633L15.0676 15.5586C15.05 15.7379 14.9023 15.875 14.723 15.875C14.5332 15.875 14.3785 15.7203 14.3785 15.5305V10.8125H14.375ZM16.073 16.1562H16.0625H16.052L16.0625 16.1316L16.073 16.1562Z" fill="white"/>
</g>
<defs>
<clipPath id="clip0_94_2043">
<path d="M12.125 10.25H27.875V28.25H12.125V10.25Z" fill="white"/>
</clipPath>
</defs>
</svg>
