<svg width="30" height="29" viewBox="0 0 30 29" fill="none" xmlns="http://www.w3.org/2000/svg">
<path d="M30 29H0V0H30V29Z" stroke="#E5E7EB"/>
<g clip-path="url(#clip0_147_759)">
<path d="M15 2C15.8297 2 16.5 2.67031 16.5 3.5V6.5H22.125C23.9906 6.5 25.5 8.00938 25.5 9.875V22.625C25.5 24.4906 23.9906 26 22.125 26H7.875C6.00938 26 4.5 24.4906 4.5 22.625V9.875C4.5 8.00938 6.00938 6.5 7.875 6.5H13.5V3.5C13.5 2.67031 14.1703 2 15 2ZM9.75 20C9.3375 20 9 20.3375 9 20.75C9 21.1625 9.3375 21.5 9.75 21.5H11.25C11.6625 21.5 12 21.1625 12 20.75C12 20.3375 11.6625 20 11.25 20H9.75ZM14.25 20C13.8375 20 13.5 20.3375 13.5 20.75C13.5 21.1625 13.8375 21.5 14.25 21.5H15.75C16.1625 21.5 16.5 21.1625 16.5 20.75C16.5 20.3375 16.1625 20 15.75 20H14.25ZM18.75 20C18.3375 20 18 20.3375 18 20.75C18 21.1625 18.3375 21.5 18.75 21.5H20.25C20.6625 21.5 21 21.1625 21 20.75C21 20.3375 20.6625 20 20.25 20H18.75ZM12.375 14C12.375 13.5027 12.1775 13.0258 11.8258 12.6742C11.4742 12.3225 10.9973 12.125 10.5 12.125C10.0027 12.125 9.52581 12.3225 9.17418 12.6742C8.82254 13.0258 8.625 13.5027 8.625 14C8.625 14.4973 8.82254 14.9742 9.17418 15.3258C9.52581 15.6775 10.0027 15.875 10.5 15.875C10.9973 15.875 11.4742 15.6775 11.8258 15.3258C12.1775 14.9742 12.375 14.4973 12.375 14ZM19.5 15.875C19.9973 15.875 20.4742 15.6775 20.8258 15.3258C21.1775 14.9742 21.375 14.4973 21.375 14C21.375 13.5027 21.1775 13.0258 20.8258 12.6742C20.4742 12.3225 19.9973 12.125 19.5 12.125C19.0027 12.125 18.5258 12.3225 18.1742 12.6742C17.8225 13.0258 17.625 13.5027 17.625 14C17.625 14.4973 17.8225 14.9742 18.1742 15.3258C18.5258 15.6775 19.0027 15.875 19.5 15.875ZM2.25 12.5H3V21.5H2.25C1.00781 21.5 0 20.4922 0 19.25V14.75C0 13.5078 1.00781 12.5 2.25 12.5ZM27.75 12.5C28.9922 12.5 30 13.5078 30 14.75V19.25C30 20.4922 28.9922 21.5 27.75 21.5H27V12.5H27.75Z" fill="white"/>
</g>
<defs>
<clipPath id="clip0_147_759">
<path d="M0 2H30V26H0V2Z" fill="white"/>
</clipPath>
</defs>
</svg>
