<svg width="20" height="18" viewBox="0 0 20 18" fill="none" xmlns="http://www.w3.org/2000/svg">
<path d="M9.99905 0C10.5538 0 11.0655 0.292983 11.3468 0.773475L19.7847 15.1492C20.0699 15.6336 20.0699 16.2313 19.7925 16.7157C19.5151 17.2001 18.9956 17.5009 18.437 17.5009H1.56113C1.00251 17.5009 0.482957 17.2001 0.205599 16.7157C-0.0717578 16.2313 -0.0678514 15.6297 0.213412 15.1492L8.65132 0.773475C8.93259 0.292983 9.44433 0 9.99905 0ZM9.99905 5.00024C9.47949 5.00024 9.0615 5.41823 9.0615 5.93779V10.313C9.0615 10.8326 9.47949 11.2505 9.99905 11.2505C10.5186 11.2505 10.9366 10.8326 10.9366 10.313V5.93779C10.9366 5.41823 10.5186 5.00024 9.99905 5.00024ZM11.2491 13.7507C11.2491 13.4191 11.1174 13.1012 10.883 12.8667C10.6485 12.6323 10.3306 12.5006 9.99905 12.5006C9.66751 12.5006 9.34955 12.6323 9.11512 12.8667C8.88069 13.1012 8.74899 13.4191 8.74899 13.7507C8.74899 14.0822 8.88069 14.4002 9.11512 14.6346C9.34955 14.869 9.66751 15.0007 9.99905 15.0007C10.3306 15.0007 10.6485 14.869 10.883 14.6346C11.1174 14.4002 11.2491 14.0822 11.2491 13.7507Z" fill="#CA8A04"/>
</svg>
