<svg width="25" height="20" viewBox="0 0 25 20" fill="none" xmlns="http://www.w3.org/2000/svg">
<path d="M0 18.9658V6.59473C0 5.57129 0.621094 4.65332 1.57031 4.27441L12.0352 0.0908203C12.332 -0.0302734 12.6641 -0.0302734 12.9648 0.0908203L23.4297 4.27441C24.3789 4.65332 25 5.5752 25 6.59473V18.9658C25 19.4854 24.582 19.9033 24.0625 19.9033H22.1875C21.668 19.9033 21.25 19.4854 21.25 18.9658V8.65332C21.25 7.96191 20.6914 7.40332 20 7.40332H5C4.30859 7.40332 3.75 7.96191 3.75 8.65332V18.9658C3.75 19.4854 3.33203 19.9033 2.8125 19.9033H0.9375C0.417969 19.9033 0 19.4854 0 18.9658ZM19.0625 19.9033H5.9375C5.41797 19.9033 5 19.4854 5 18.9658V16.7783H20V18.9658C20 19.4854 19.582 19.9033 19.0625 19.9033ZM5 15.5283V13.0283H20V15.5283H5ZM5 11.7783V8.65332H20V11.7783H5Z" fill="#16A34A"/>
</svg>
