<svg width="6" height="7" viewBox="0 0 6 7" fill="none" xmlns="http://www.w3.org/2000/svg">
<path d="M3.19075 6.27759H2.68854C2.48138 6.27759 2.31189 6.10809 2.31189 5.90093C2.31189 3.67239 4.74131 3.89524 4.74131 2.51731C4.74131 1.88955 4.18261 1.25552 2.93965 1.25552C2.02626 1.25552 1.54916 1.55684 1.08148 2.15635C0.959068 2.31329 0.733075 2.34468 0.572997 2.23168L0.161815 1.94291C-0.0139579 1.8205 -0.0547619 1.57254 0.0802062 1.40304C0.74563 0.549289 1.53661 0 2.94279 0C4.58437 0 5.99997 0.93536 5.99997 2.51731C5.99997 4.63914 3.57054 4.51045 3.57054 5.90093C3.56741 6.10809 3.39791 6.27759 3.19075 6.27759Z" fill="#16A34A"/>
</svg>
